<svg width="31" height="118" viewBox="0 0 31 118" fill="none" xmlns="http://www.w3.org/2000/svg">
<path d="M15 0C6.71573 0 0 6.71573 0 15C0 23.2843 6.71573 30 15 30V0ZM15.5 30C23.7843 30 30.5 23.2843 30.5 15C30.5 6.71573 23.7843 0 15.5 0V30ZM15 88C6.71573 88 0 94.7157 0 103C0 111.284 6.71573 118 15 118V88ZM15.5 118C23.7843 118 30.5 111.284 30.5 103C30.5 94.7157 23.7843 88 15.5 88V118ZM15 44C6.71573 44 0 50.7157 0 59C0 67.2843 6.71573 74 15 74V44ZM15.5 74C23.7843 74 30.5 67.2843 30.5 59C30.5 50.7157 23.7843 44 15.5 44V74ZM15 30H15.5V0H15V30ZM15 118H15.5V88H15V118ZM15 74H15.5V44H15V74Z" fill="black"/>
</svg>
